<svg width="284" height="43" viewBox="0 0 284 43" fill="none" xmlns="http://www.w3.org/2000/svg">
<path d="M32.866 0H251.134C260.494 0 266.11 0 269.854 1.29645C275.825 3.4701 280.53 8.17484 282.704 14.1465C283.561 16.5034 284 18.992 284 21.5C284 24.008 283.561 26.4966 282.704 28.8535C280.53 34.8252 275.825 39.5299 269.854 41.7036C266.11 43 260.494 43 251.134 43H32.866C23.5061 43 17.8904 43 14.1462 41.7036C8.1747 39.5299 3.47004 34.8252 1.29643 28.8535C0.438593 26.4966 0 24.008 0 21.5C0 18.992 0.438593 16.5034 1.29643 14.1465C3.47004 8.17484 8.1747 3.4701 14.1462 1.29645C17.8904 0 23.5061 0 32.866 0Z" fill="#D9D9D9"/>
</svg>
